<?xml version="1.0" encoding="UTF-8"?>
<svg xmlns="http://www.w3.org/2000/svg" xmlns:xlink="http://www.w3.org/1999/xlink" width="45px" height="45px" viewBox="0 0 45 45" version="1.1">
    <g id="surface1">
        <path style=" stroke:none;fill-rule:nonzero;fill:rgb(0%,0%,0%);fill-opacity:1;" d="M 0.71875 0 L 31.597656 0 C 31.785156 0.03125 31.945312 0.101562 32.078125 0.214844 C 36.167969 3.71875 40.257812 7.226562 44.351562 10.738281 C 44.371094 10.753906 44.453125 10.824219 44.601562 10.941406 C 44.714844 11.035156 44.792969 11.109375 44.839844 11.171875 C 44.878906 11.234375 44.9375 11.371094 45 11.582031 L 45 44.199219 C 44.914062 44.652344 44.644531 44.917969 44.195312 45 L 11.585938 45 C 11.433594 44.96875 11.335938 44.941406 11.292969 44.914062 C 11.179688 44.84375 11.082031 44.757812 11 44.65625 C 10.925781 44.5625 10.886719 44.511719 10.882812 44.507812 C 7.328125 40.363281 3.765625 36.214844 0.207031 32.070312 C 0.0976562 31.941406 0.0273438 31.78125 0 31.589844 L 0 0.703125 C 0.0585938 0.53125 0.125 0.398438 0.199219 0.308594 C 0.320312 0.164062 0.496094 0.0625 0.71875 0 Z M 41.640625 10.800781 C 41.644531 10.800781 41.652344 10.796875 41.65625 10.789062 C 41.65625 10.785156 41.65625 10.777344 41.652344 10.773438 L 31.167969 1.804688 C 31.164062 1.804688 31.164062 1.800781 31.15625 1.800781 L 3.125 1.800781 C 3.121094 1.800781 3.113281 1.804688 3.113281 1.808594 C 3.109375 1.8125 3.113281 1.820312 3.117188 1.824219 L 12.089844 10.796875 C 12.089844 10.796875 12.09375 10.800781 12.097656 10.800781 Z M 10.78125 38.882812 C 10.707031 39.214844 10.460938 39.484375 10.132812 39.570312 C 9.367188 39.765625 8.777344 39.003906 9.089844 38.308594 C 9.210938 38.042969 9.503906 37.832031 9.792969 37.808594 C 10.210938 37.773438 10.519531 37.945312 10.71875 38.324219 C 10.742188 38.375 10.765625 38.429688 10.773438 38.484375 C 10.789062 38.5625 10.800781 38.5625 10.800781 38.484375 L 10.800781 33.472656 C 10.800781 33.464844 10.796875 33.464844 10.792969 33.464844 C 10.789062 33.464844 10.785156 33.464844 10.785156 33.472656 C 10.675781 33.949219 10.246094 34.261719 9.757812 34.1875 C 8.957031 34.058594 8.726562 33.027344 9.390625 32.5625 C 9.917969 32.1875 10.625 32.488281 10.773438 33.097656 C 10.789062 33.160156 10.800781 33.15625 10.800781 33.09375 L 10.800781 28.125 C 10.800781 28.042969 10.789062 28.042969 10.773438 28.121094 C 10.664062 28.5625 10.21875 28.859375 9.765625 28.785156 C 9.011719 28.667969 8.726562 27.726562 9.320312 27.214844 C 9.84375 26.765625 10.617188 27.0625 10.773438 27.6875 C 10.789062 27.757812 10.800781 27.757812 10.800781 27.6875 L 10.800781 22.695312 C 10.800781 22.640625 10.792969 22.636719 10.777344 22.695312 C 10.695312 23.011719 10.507812 23.230469 10.207031 23.34375 C 9.628906 23.5625 9 23.121094 9 22.5 C 9.003906 21.777344 9.808594 21.359375 10.402344 21.753906 C 10.589844 21.882812 10.710938 22.058594 10.773438 22.285156 C 10.789062 22.351562 10.800781 22.351562 10.800781 22.28125 L 10.800781 17.3125 C 10.800781 17.226562 10.789062 17.222656 10.773438 17.3125 C 10.753906 17.421875 10.699219 17.535156 10.609375 17.652344 C 10.269531 18.089844 9.617188 18.117188 9.242188 17.710938 C 8.78125 17.21875 9.015625 16.425781 9.644531 16.238281 C 10.136719 16.09375 10.640625 16.378906 10.769531 16.878906 C 10.789062 16.957031 10.800781 16.953125 10.800781 16.871094 C 10.800781 15.261719 10.800781 13.683594 10.800781 12.132812 C 10.800781 12.089844 10.773438 12.0625 10.730469 12.050781 C 10.714844 12.046875 10.703125 12.050781 10.699219 12.066406 C 10.601562 12.28125 10.449219 12.429688 10.238281 12.527344 C 9.726562 12.753906 9.132812 12.425781 9.023438 11.894531 C 8.949219 11.554688 9.054688 11.265625 9.335938 11.023438 C 9.390625 10.972656 9.464844 10.933594 9.535156 10.894531 C 9.550781 10.886719 9.554688 10.878906 9.539062 10.859375 L 8.035156 9.355469 C 8.023438 9.34375 8.011719 9.34375 8 9.363281 C 7.730469 9.9375 7.023438 10.085938 6.566406 9.636719 C 6.359375 9.4375 6.265625 9.136719 6.3125 8.851562 C 6.363281 8.582031 6.554688 8.3125 6.828125 8.207031 C 6.851562 8.195312 6.859375 8.175781 6.835938 8.160156 L 5.328125 6.648438 C 5.324219 6.648438 5.320312 6.644531 5.316406 6.644531 C 5.3125 6.648438 5.308594 6.648438 5.304688 6.652344 C 5.21875 6.84375 5.085938 6.988281 4.910156 7.085938 C 4.257812 7.460938 3.460938 6.847656 3.621094 6.121094 C 3.683594 5.84375 3.855469 5.632812 4.140625 5.496094 C 4.144531 5.492188 4.148438 5.488281 4.152344 5.480469 C 4.152344 5.476562 4.148438 5.46875 4.144531 5.46875 L 2.625 3.949219 C 2.621094 3.945312 2.621094 3.945312 2.617188 3.945312 C 2.617188 3.945312 2.609375 3.949219 2.609375 3.953125 C 2.445312 4.292969 2.183594 4.476562 1.824219 4.496094 C 1.808594 4.5 1.804688 4.507812 1.804688 4.523438 L 1.804688 8.074219 C 1.804688 8.089844 1.808594 8.101562 1.824219 8.101562 C 2.363281 8.136719 2.796875 8.609375 2.6875 9.152344 C 2.59375 9.59375 2.304688 9.847656 1.820312 9.90625 C 1.808594 9.90625 1.804688 9.917969 1.804688 9.929688 L 1.804688 13.480469 C 1.804688 13.492188 1.808594 13.5 1.820312 13.5 C 2.101562 13.515625 2.328125 13.625 2.5 13.835938 C 2.960938 14.417969 2.578125 15.261719 1.828125 15.296875 C 1.8125 15.300781 1.804688 15.308594 1.804688 15.324219 L 1.804688 18.875 C 1.804688 18.890625 1.808594 18.898438 1.824219 18.898438 C 2.125 18.917969 2.359375 19.039062 2.519531 19.265625 C 2.941406 19.847656 2.570312 20.667969 1.824219 20.699219 C 1.808594 20.699219 1.804688 20.707031 1.804688 20.722656 L 1.804688 24.273438 C 1.804688 24.289062 1.808594 24.296875 1.824219 24.300781 C 2.21875 24.339844 2.488281 24.523438 2.625 24.851562 C 2.878906 25.457031 2.449219 26.0625 1.824219 26.101562 C 1.808594 26.101562 1.804688 26.105469 1.804688 26.125 L 1.804688 29.675781 C 1.804688 29.6875 1.808594 29.699219 1.824219 29.699219 C 2.132812 29.722656 2.367188 29.847656 2.523438 30.074219 C 2.882812 30.585938 2.65625 31.25 2.050781 31.433594 C 2.046875 31.433594 2.039062 31.441406 2.039062 31.445312 C 2.035156 31.449219 2.039062 31.457031 2.042969 31.460938 L 3.578125 33.246094 C 3.582031 33.25 3.589844 33.253906 3.59375 33.25 C 3.597656 33.25 3.601562 33.242188 3.601562 33.242188 C 3.671875 32.398438 4.75 32.085938 5.238281 32.785156 C 5.464844 33.113281 5.453125 33.546875 5.207031 33.851562 C 4.996094 34.113281 4.726562 34.226562 4.398438 34.1875 C 4.378906 34.1875 4.375 34.191406 4.386719 34.203125 L 10.773438 41.652344 C 10.789062 41.671875 10.800781 41.667969 10.800781 41.640625 C 10.800781 40.65625 10.800781 39.738281 10.796875 38.882812 C 10.796875 38.835938 10.789062 38.832031 10.78125 38.882812 Z M 43.199219 12.613281 C 43.199219 12.605469 43.191406 12.601562 43.1875 12.601562 L 12.613281 12.601562 C 12.605469 12.601562 12.601562 12.605469 12.601562 12.613281 L 12.601562 43.1875 C 12.601562 43.191406 12.605469 43.199219 12.613281 43.199219 L 43.1875 43.199219 C 43.191406 43.199219 43.199219 43.191406 43.199219 43.1875 Z M 43.199219 12.613281 "/>
        <path style=" stroke:none;fill-rule:nonzero;fill:rgb(0%,0%,0%);fill-opacity:1;" d="M 5.398438 11.699219 C 5.398438 12.195312 4.996094 12.601562 4.5 12.601562 C 4.003906 12.601562 3.601562 12.195312 3.601562 11.699219 C 3.601562 11.203125 4.003906 10.800781 4.5 10.800781 C 4.996094 10.800781 5.398438 11.203125 5.398438 11.699219 Z M 5.398438 11.699219 "/>
        <path style=" stroke:none;fill-rule:nonzero;fill:rgb(0%,0%,0%);fill-opacity:1;" d="M 8.101562 14.398438 C 8.101562 14.894531 7.695312 15.300781 7.199219 15.300781 C 6.703125 15.300781 6.300781 14.894531 6.300781 14.398438 C 6.300781 13.902344 6.703125 13.5 7.199219 13.5 C 7.695312 13.5 8.101562 13.902344 8.101562 14.398438 Z M 8.101562 14.398438 "/>
        <path style=" stroke:none;fill-rule:nonzero;fill:rgb(0%,0%,0%);fill-opacity:1;" d="M 5.398438 17.101562 C 5.398438 17.59375 4.996094 17.996094 4.5 17.996094 C 4.003906 17.996094 3.601562 17.59375 3.601562 17.101562 C 3.601562 16.605469 4.003906 16.199219 4.5 16.199219 C 4.996094 16.199219 5.398438 16.605469 5.398438 17.101562 Z M 5.398438 17.101562 "/>
        <path style=" stroke:none;fill-rule:nonzero;fill:rgb(0%,0%,0%);fill-opacity:1;" d="M 8.101562 19.800781 C 8.101562 20.296875 7.695312 20.699219 7.199219 20.699219 C 6.703125 20.699219 6.300781 20.296875 6.300781 19.800781 C 6.300781 19.304688 6.703125 18.898438 7.199219 18.898438 C 7.695312 18.898438 8.101562 19.304688 8.101562 19.800781 Z M 8.101562 19.800781 "/>
        <path style=" stroke:none;fill-rule:nonzero;fill:rgb(0%,0%,0%);fill-opacity:1;" d="M 5.398438 22.5 C 5.398438 22.996094 4.996094 23.398438 4.5 23.398438 C 4.003906 23.398438 3.601562 22.996094 3.601562 22.5 C 3.601562 22.003906 4.003906 21.601562 4.5 21.601562 C 4.996094 21.601562 5.398438 22.003906 5.398438 22.5 Z M 5.398438 22.5 "/>
        <path style=" stroke:none;fill-rule:nonzero;fill:rgb(0%,0%,0%);fill-opacity:1;" d="M 8.101562 25.199219 C 8.101562 25.695312 7.695312 26.101562 7.199219 26.101562 C 6.703125 26.101562 6.300781 25.695312 6.300781 25.199219 C 6.300781 24.703125 6.703125 24.300781 7.199219 24.300781 C 7.695312 24.300781 8.101562 24.703125 8.101562 25.199219 Z M 8.101562 25.199219 "/>
        <path style=" stroke:none;fill-rule:nonzero;fill:rgb(0%,0%,0%);fill-opacity:1;" d="M 5.398438 27.898438 C 5.398438 28.394531 4.996094 28.796875 4.5 28.796875 C 4.003906 28.796875 3.601562 28.394531 3.601562 27.898438 C 3.601562 27.40625 4.003906 27 4.5 27 C 4.996094 27 5.398438 27.40625 5.398438 27.898438 Z M 5.398438 27.898438 "/>
        <path style=" stroke:none;fill-rule:nonzero;fill:rgb(0%,0%,0%);fill-opacity:1;" d="M 8.101562 30.601562 C 8.101562 31.09375 7.695312 31.5 7.199219 31.5 C 6.703125 31.5 6.300781 31.09375 6.300781 30.601562 C 6.300781 30.101562 6.703125 29.699219 7.199219 29.699219 C 7.695312 29.699219 8.101562 30.101562 8.101562 30.601562 Z M 8.101562 30.601562 "/>
        <path style=" stroke:none;fill-rule:nonzero;fill:rgb(0%,0%,0%);fill-opacity:1;" d="M 8.101562 36 C 8.101562 36.496094 7.695312 36.898438 7.199219 36.898438 C 6.703125 36.898438 6.300781 36.496094 6.300781 36 C 6.300781 35.503906 6.703125 35.101562 7.199219 35.101562 C 7.695312 35.101562 8.101562 35.503906 8.101562 36 Z M 8.101562 36 "/>
    </g>
</svg>
