<?xml version="1.0" encoding="UTF-8"?>
<svg xmlns="http://www.w3.org/2000/svg" xmlns:xlink="http://www.w3.org/1999/xlink" width="50px" height="50px" viewBox="0 0 50 50" version="1.1">
<g id="surface1">
<path style=" stroke:none;fill-rule:nonzero;fill:rgb(0%,0%,0%);fill-opacity:1;" d="M 46.875 35.914062 C 46.875 38.515625 44.765625 40.625 42.164062 40.625 L 7.835938 40.625 C 5.234375 40.625 3.125 38.515625 3.125 35.914062 L 3.125 10.960938 C 3.125 8.359375 5.234375 6.25 7.835938 6.25 L 42.164062 6.25 C 44.765625 6.25 46.875 8.359375 46.875 10.960938 Z M 43.75 10.925781 C 43.75 10.070312 43.054688 9.375 42.199219 9.375 L 7.800781 9.375 C 6.945312 9.375 6.25 10.070312 6.25 10.925781 L 6.25 35.949219 C 6.25 36.804688 6.945312 37.5 7.800781 37.5 L 42.199219 37.5 C 43.054688 37.5 43.75 36.804688 43.75 35.949219 Z M 43.75 10.925781 "/>
</g>
</svg>
