<?xml version="1.0" encoding="UTF-8"?>
<svg xmlns="http://www.w3.org/2000/svg" xmlns:xlink="http://www.w3.org/1999/xlink" width="50px" height="50px" viewBox="0 0 50 50" version="1.1">
<g id="surface1">
<path style=" stroke:none;fill-rule:nonzero;fill:rgb(0%,0%,0%);fill-opacity:1;" d="M 25.109375 43.988281 C 30.339844 44.003906 35.570312 44.003906 40.804688 43.992188 C 41.164062 43.992188 41.417969 44.019531 41.558594 44.074219 C 42.140625 44.300781 42.320312 45.082031 41.96875 45.578125 C 41.785156 45.84375 41.527344 45.976562 41.191406 45.976562 C 32.179688 45.992188 23.171875 46 14.160156 45.996094 C 13.882812 45.996094 13.644531 45.898438 13.449219 45.703125 C 10.257812 42.5 7.074219 39.289062 3.894531 36.070312 C 2.953125 35.121094 2.722656 33.675781 3.34375 32.492188 C 3.492188 32.207031 3.800781 31.828125 4.273438 31.351562 C 12.835938 22.695312 21.398438 14.042969 29.960938 5.390625 C 30.464844 4.878906 30.832031 4.558594 31.0625 4.421875 C 32.003906 3.878906 33.339844 3.910156 34.246094 4.472656 C 34.601562 4.695312 34.929688 5.054688 35.25 5.378906 C 39.253906 9.421875 43.257812 13.464844 47.257812 17.511719 C 47.382812 17.636719 47.507812 17.816406 47.632812 18.058594 C 48.117188 18.976562 48.121094 20.066406 47.652344 20.953125 C 47.5 21.246094 47.167969 21.648438 46.65625 22.164062 C 39.464844 29.417969 32.273438 36.679688 25.09375 43.945312 C 25.0625 43.976562 25.066406 43.988281 25.109375 43.988281 Z M 5.324219 33.179688 C 5.039062 33.464844 4.941406 33.890625 5.078125 34.253906 C 5.132812 34.398438 5.28125 34.59375 5.527344 34.839844 C 8.527344 37.882812 11.53125 40.925781 14.53125 43.96875 C 14.550781 43.988281 14.578125 44 14.605469 44 L 22.171875 43.996094 C 22.203125 43.996094 22.234375 43.984375 22.257812 43.960938 L 32.28125 33.8125 C 32.292969 33.804688 32.296875 33.792969 32.296875 33.78125 C 32.296875 33.769531 32.289062 33.757812 32.28125 33.75 L 18.03125 20.398438 C 18.015625 20.386719 17.988281 20.386719 17.976562 20.402344 C 13.761719 24.65625 9.542969 28.917969 5.324219 33.179688 Z M 5.324219 33.179688 "/>
</g>
</svg>
