<svg xmlns="http://www.w3.org/2000/svg" width="60" height="60" stroke="null" fill="rgb(0%,0%,0%)" ><path d="M21.234 20.977l17.57 17.125c.156.152.156.398 0 .551s-.406.152-.562 0L20.668 21.523c-.156-.148-.156-.391 0-.547h.004c.152-.152.406-.152.563 0zm0 0"/><path d="M16.773 22.895c-3.738 0-6.773-2.957-6.773-6.602s3.035-6.605 6.773-6.605c3.746 0 6.781 2.957 6.781 6.605s-3.035 6.602-6.781 6.602zm0-.574c3.422 0 6.191-2.695 6.191-6.027s-2.77-6.035-6.191-6.035c-3.414 0-6.187 2.703-6.187 6.035s2.773 6.027 6.188 6.027zm26.454 27.366c-3.746 0-6.781-2.957-6.781-6.605s3.035-6.602 6.781-6.602c3.738 0 6.773 2.957 6.773 6.602s-3.035 6.605-6.773 6.605zm0-.57c3.414 0 6.188-2.703 6.188-6.035s-2.773-6.027-6.187-6.027c-3.422 0-6.191 2.695-6.191 6.027s2.77 6.035 6.191 6.035zm0 0"/></svg>