<?xml version="1.0" encoding="UTF-8" standalone="no"?>
<!DOCTYPE svg PUBLIC "-//W3C//DTD SVG 1.1//EN" "http://www.w3.org/Graphics/SVG/1.1/DTD/svg11.dtd">
<svg xmlns="http://www.w3.org/2000/svg" version="1.1" viewBox="0.00 0.00 512.00 512.00">
<path fill="#000000" d="
  M 501.41 255.99
  A 245.41 181.43 0.0 0 1 256.00 437.42
  A 245.41 181.43 0.0 0 1 10.59 255.99
  A 245.41 181.43 0.0 0 1 256.00 74.56
  A 245.41 181.43 0.0 0 1 501.41 255.99
  Z
  M 469.23 255.99
  A 213.23 149.20 0.0 0 0 256.00 106.79
  A 213.23 149.20 0.0 0 0 42.77 255.99
  A 213.23 149.20 0.0 0 0 256.00 405.19
  A 213.23 149.20 0.0 0 0 469.23 255.99
  Z"
/>
</svg>
