<?xml version="1.0" encoding="UTF-8" standalone="no"?>
<!DOCTYPE svg PUBLIC "-//W3C//DTD SVG 1.1//EN" "http://www.w3.org/Graphics/SVG/1.1/DTD/svg11.dtd">
<svg xmlns="http://www.w3.org/2000/svg" version="1.1" viewBox="0.00 0.00 512.00 512.00">
<path fill="#000000" d="
  M 257.12 450.45
  Q 337.47 450.68 417.82 450.47
  Q 423.38 450.46 425.57 451.32
  C 431.51 453.65 433.35 461.63 429.78 466.74
  Q 426.95 470.79 421.80 470.80
  Q 283.40 471.04 145.00 471.01
  Q 140.72 471.01 137.74 468.01
  Q 88.72 418.78 39.87 369.38
  C 30.24 359.64 27.89 344.83 34.22 332.73
  Q 36.51 328.35 43.75 321.03
  Q 175.27 188.11 306.80 55.19
  Q 314.55 47.35 318.09 45.30
  C 327.71 39.72 341.39 40.05 350.69 45.81
  C 354.32 48.07 357.68 51.78 360.96 55.09
  Q 422.47 117.18 483.94 179.31
  Q 485.82 181.22 487.78 184.93
  C 492.74 194.32 492.75 205.47 487.98 214.55
  Q 485.61 219.04 477.78 226.95
  Q 367.28 338.40 256.94 450.00
  Q 256.49 450.45 257.12 450.45
  Z
  M 54.51 339.76
  C 51.61 342.69 50.60 347.04 52.01 350.77
  Q 52.83 352.95 56.61 356.77
  Q 102.69 403.50 148.81 450.23
  Q 149.12 450.54 149.55 450.54
  L 227.03 450.53
  A 1.31 1.30 -67.1 0 0 227.94 450.16
  L 330.58 346.23
  A 0.42 0.42 0.0 0 0 330.57 345.62
  L 184.62 208.90
  A 0.40 0.40 0.0 0 0 184.06 208.91
  Q 119.33 274.29 54.51 339.76
  Z"
/>
</svg>
