<?xml version="1.0" encoding="UTF-8" standalone="no"?>
<!DOCTYPE svg PUBLIC "-//W3C//DTD SVG 1.1//EN" "http://www.w3.org/Graphics/SVG/1.1/DTD/svg11.dtd">
<svg xmlns="http://www.w3.org/2000/svg" version="1.1" viewBox="0.00 0.00 512.00 512.00">
<path fill="#000000" d="
  M 480.00 367.76
  A 48.24 48.24 0.0 0 1 431.76 416.00
  L 80.24 416.00
  A 48.24 48.24 0.0 0 1 32.00 367.76
  L 32.00 112.24
  A 48.24 48.24 0.0 0 1 80.24 64.00
  L 431.76 64.00
  A 48.24 48.24 0.0 0 1 480.00 112.24
  L 480.00 367.76
  Z
  M 448.00 111.88
  A 15.88 15.88 0.0 0 0 432.12 96.00
  L 79.88 96.00
  A 15.88 15.88 0.0 0 0 64.00 111.88
  L 64.00 368.12
  A 15.88 15.88 0.0 0 0 79.88 384.00
  L 432.12 384.00
  A 15.88 15.88 0.0 0 0 448.00 368.12
  L 448.00 111.88
  Z"
/>
</svg>
